<svg width="24" height="24" viewBox="0 0 24 24" fill="none" xmlns="http://www.w3.org/2000/svg">
<path fill-rule="evenodd" clip-rule="evenodd" d="M2.80369 8.35317C2.52355 10.9561 2.53604 13.9581 2.92586 16.5504C3.14156 17.9848 4.31223 19.0844 5.7573 19.21L7.26753 19.3413C10.4166 19.6151 13.5834 19.6151 16.7325 19.3413L18.2427 19.21C19.6878 19.0844 20.8585 17.9848 21.0742 16.5504C21.464 13.958 21.4765 10.9562 21.1963 8.35333C21.1601 8.05157 21.1194 7.75021 21.0742 7.44937C20.8585 6.01497 19.6878 4.91533 18.2427 4.78971L16.7325 4.65843C13.5834 4.38469 10.4166 4.38469 7.26753 4.65843L5.7573 4.78971C4.31223 4.91533 3.14156 6.01497 2.92586 7.44936C2.88063 7.75016 2.83991 8.05147 2.80369 8.35317ZM7.39743 6.1528C10.46 5.88657 13.54 5.88657 16.6026 6.15279L18.1128 6.28408C18.8671 6.34965 19.4782 6.92367 19.5908 7.67242C19.6025 7.75018 19.6139 7.82797 19.625 7.9058L14.064 10.9952C12.7804 11.7084 11.2196 11.7084 9.93599 10.9952L4.37505 7.90583C4.38611 7.828 4.39749 7.75019 4.40918 7.67242C4.52178 6.92367 5.13287 6.34965 5.8872 6.28408L7.39743 6.1528ZM19.8085 9.51976C20.0025 11.7875 19.9299 14.0724 19.5908 16.3273C19.4782 17.0761 18.8671 17.6501 18.1128 17.7157L16.6026 17.847C13.54 18.1132 10.46 18.1132 7.39743 17.847L5.8872 17.7157C5.13287 17.6501 4.52178 17.0761 4.40918 16.3273C4.07009 14.0724 3.99753 11.7875 4.1915 9.5198L9.20752 12.3065C10.9442 13.2713 13.0558 13.2713 14.7924 12.3065L19.8085 9.51976Z" fill="#1A1A1A"/>
</svg>
