<svg width="24" height="24" viewBox="0 0 24 24" fill="none" xmlns="http://www.w3.org/2000/svg">
<path fill-rule="evenodd" clip-rule="evenodd" d="M15.0215 3.34365C15.5299 3.25656 16.0992 3.22749 16.6349 3.31813C17.5918 3.48001 18.4756 3.92474 19.1743 4.5915C19.631 4.60183 20.0798 4.51186 20.4769 4.38359C20.8131 4.27504 21.097 4.14397 21.2959 4.04033C21.3948 3.9888 21.4713 3.94484 21.5209 3.91509C21.5457 3.90023 21.5638 3.88898 21.5745 3.88219L21.584 3.87613C21.8808 3.6784 22.276 3.71689 22.5289 3.96839C22.7818 4.21996 22.8226 4.61488 22.6263 4.91278C22.4186 5.22807 22.1303 5.79015 21.8072 6.4199C21.7564 6.51892 21.7047 6.61962 21.6524 6.72129C21.4671 7.08125 21.2771 7.44507 21.1 7.7572C20.9888 7.95318 20.8699 8.15216 20.75 8.3241V8.59788C20.7576 9.6035 20.6423 10.6039 20.4082 11.5771C20.2609 12.1894 20.0667 12.791 19.8264 13.3764C19.204 14.8931 18.2856 16.2705 17.1249 17.4283C15.9641 18.586 14.5844 19.5009 13.0661 20.1194C11.5492 20.7374 9.92444 21.0472 8.28659 21.0308C5.91228 21.0328 3.58791 20.3488 1.59319 19.0608C1.29939 18.8711 1.17569 18.5036 1.29503 18.1748C1.41437 17.8461 1.74506 17.6435 2.09213 17.6864C2.39249 17.7236 2.6949 17.7418 2.99756 17.7408C4.08501 17.7377 5.15174 17.4975 6.12561 17.0448C5.81606 16.9039 5.52052 16.7301 5.24437 16.5254C4.43265 15.9235 3.82874 15.0835 3.51667 14.1224C3.43558 13.8726 3.49102 13.5986 3.66283 13.4001C3.66591 13.3965 3.66902 13.393 3.67215 13.3895C3.48862 13.2258 3.3169 13.0477 3.1588 12.856C2.44748 11.9938 2.05581 10.9124 2.05002 9.79465L2.05 9.79077L2.05001 9.74077C2.05001 9.47491 2.19077 9.22891 2.41997 9.09419C2.47807 9.06004 2.53965 9.03433 2.603 9.01709C2.26467 8.34201 2.08873 7.59656 2.09001 6.84031C2.08961 5.98354 2.31341 5.14157 2.73917 4.39807C2.86208 4.18343 3.08291 4.0432 3.32944 4.02322C3.57597 4.00324 3.8165 4.1061 3.97236 4.29814C4.93491 5.48416 6.1362 6.45441 7.49819 7.14588C8.19833 7.50134 8.93288 7.77903 9.68867 7.97547C10.1124 8.0856 10.5428 8.17018 10.9776 8.22861C10.9584 7.50535 11.1013 6.78248 11.401 6.11455C11.8407 5.13473 12.5931 4.32855 13.5404 3.82246C13.9415 3.60813 14.474 3.43742 15.0215 3.34365ZM3.74329 10.8911C3.87294 11.256 4.0658 11.5983 4.31586 11.9014C4.80718 12.497 5.48913 12.9045 6.24635 13.0552C6.58363 13.1223 6.83207 13.4102 6.84909 13.7536C6.86612 14.0971 6.64737 14.4082 6.31837 14.5083C6.04588 14.5912 5.7667 14.649 5.48434 14.6811C5.67093 14.9216 5.8904 15.137 6.13781 15.3205C6.699 15.7366 7.37594 15.9675 8.07445 15.9809C8.39137 15.987 8.67023 16.1917 8.77106 16.4922C8.87189 16.7927 8.7729 17.1242 8.5238 17.3202C7.47463 18.1457 6.26143 18.7214 4.97588 19.0153C6.04136 19.3565 7.15881 19.5321 8.2891 19.5308L8.2978 19.5308C9.73786 19.5457 11.1665 19.2736 12.5002 18.7303C13.8339 18.1869 15.0459 17.3833 16.0656 16.3663C17.0852 15.3492 17.892 14.1392 18.4387 12.8069C18.6498 12.2927 18.8204 11.7642 18.9498 11.2263C19.1556 10.3706 19.257 9.4909 19.25 8.60663L19.25 8.60077V8.07077C19.25 7.88892 19.3161 7.71326 19.4359 7.57649C19.5052 7.49744 19.6264 7.31489 19.7954 7.01699C19.956 6.73386 20.1338 6.39395 20.3187 6.03477C20.3299 6.01305 20.3411 5.99121 20.3524 5.96928C19.8728 6.07342 19.3293 6.12801 18.7594 6.06643C18.579 6.04692 18.4117 5.96264 18.2887 5.8292C17.7858 5.28386 17.1161 4.92085 16.3847 4.79711C16.0602 4.74221 15.6678 4.75478 15.2747 4.82211C14.8476 4.89527 14.4759 5.02329 14.2472 5.14546C13.593 5.49503 13.0732 6.05188 12.7695 6.72866C12.4658 7.40545 12.3953 8.16389 12.5691 8.88505C12.6245 9.11496 12.5683 9.35754 12.4173 9.53957C12.2663 9.7216 12.0383 9.82176 11.8021 9.80981C10.9587 9.76715 10.1242 9.6385 9.31135 9.42723C8.45146 9.20374 7.61572 8.8878 6.81915 8.48338C5.64637 7.88797 4.57832 7.11088 3.65348 6.18319C3.61129 6.3988 3.58987 6.61883 3.59001 6.84027L3.59001 6.84219C3.58897 7.39291 3.72412 7.93534 3.98343 8.42119C4.24274 8.90704 4.61816 9.32123 5.07627 9.62689C5.35429 9.81239 5.47602 10.1595 5.37477 10.478C5.27351 10.7965 4.97372 11.0096 4.63962 11.0005C4.33702 10.9923 4.03696 10.9555 3.74329 10.8911Z" fill="#828282"/>
</svg>
